<svg width="640" height="480" viewBox="0 0 640 480" fill="none" xmlns="http://www.w3.org/2000/svg">
  <rect width="640" height="480" rx="32" fill="#F8F1E3"/>
  <circle cx="492" cy="118" r="84" fill="#3C6E71" fill-opacity="0.16"/>
  <circle cx="168" cy="160" r="92" fill="#C5863A" fill-opacity="0.2"/>
  <rect x="148" y="292" width="344" height="128" rx="24" fill="#FFFFFF"/>
  <path d="M214 272C214 234.026 244.026 204 282 204H290C327.974 204 358 234.026 358 272V300H214V272Z" fill="#23323B"/>
  <circle cx="286" cy="162" r="72" fill="#F6C986"/>
  <path d="M248 154C248 124.176 272.176 100 302 100H306C335.824 100 360 124.176 360 154V168H248V154Z" fill="#3C6E71"/>
  <rect x="216" y="312" width="140" height="18" rx="9" fill="#C5863A"/>
  <rect x="216" y="344" width="190" height="16" rx="8" fill="#D9D0C0"/>
  <rect x="216" y="372" width="162" height="16" rx="8" fill="#D9D0C0"/>
</svg>
